/* XPM */
static char * icon_xpm[] = {
"35 35 4 1",
" 	c None",
".	c #000000",
"+	c #FF0000",
"-	c #800000",
"             .........             ",
"          ...............          ",
"        ...................        ",
"       .....................       ",
"      ..+++++++.....+++++++..      ",
"     ..+++++++++...+++++++++..     ",
"    ....+++++++.....+++++++....    ",
"   .............................   ",
"  +++++++.....+++++++.....+++++++  ",
" +++++++++...+++++++++...+++++++++ ",
" .+++++++.....+++++++.....+++++++. ",
" ................................. ",
" ......-+-....+++++++....-+-...... ",
".......+++...+++++++++...+++.......",
".......-+-....+++++++....-+-.......",
"...................................",
"..........-+-...-+-...-+-..........",
"..........+++...+++...+++..........",
"..........-+-...-+-...-+-..........",
"...................................",
"................-+-................",
"................+++................",
" ...............-+-............... ",
" ................................. ",
" ................................. ",
"  ...............................  ",
"  ...............................  ",
"   .............................   ",
"  +++++++....-+-...-+-....+++++++  ",
" +++++++++...+++...+++...+++++++++ ",
"  +++++++....-+-...-+-....+++++++  ",
"       .....................       ",
"        ...................        ",
"          ...............          ",
"             .........             "};
