/* XPM */
static char * icon_xpm[] = {
"35 35 2 1",
" 	c None",
".	c #FF0000",
"                                   ",
"       .........   .........       ",
"       .........   .........       ",
"       .........   .........       ",
"                                   ",
" .........   .........   ......... ",
" .........   .........   ......... ",
" .........   .........   ......... ",
"                                   ",
"       ...   .........   ...       ",
"       ...   .........   ...       ",
"       ...   .........   ...       ",
"                                   ",
"          ...   ...   ...          ",
"          ...   ...   ...          ",
"          ...   ...   ...          ",
"                                   ",
"                ...                ",
"                ...                ",
"                ...                ",
"                                   ",
"                                   ",
"                                   ",
"                                   ",
"                                   ",
" .........   ...   ...   ......... ",
" .........   ...   ...   ......... ",
" .........   ...   ...   ......... ",
"                                   ",
"                                   ",
"                                   ",
"                                   ",
"                                   ",
"                                   ",
"                                   "};
